<svg xmlns="http://www.w3.org/2000/svg" width="512" height="409.6" viewBox="0 0 512 409.6">
  <defs>
    <style>
      .a {
        fill: #a6a6bf;
      }
    </style>
  </defs>
  <title>folder</title>
  <path class="a" d="M460.8,102.4H256L204.8,51.2H51.2A51.35,51.35,0,0,0,0,102.4V409.6a51.35,51.35,0,0,0,51.2,51.2H460.8A51.35,51.35,0,0,0,512,409.6v-256a51.35,51.35,0,0,0-51.2-51.2M378.88,409.6h-38.4V371.2h38.4v38.4m0-56.32h-38.4c0-61.44,56.32-58.88,56.32-97.28,0-20.48-17.92-38.4-38.4-38.4S320,235.52,320,256H281.6c0-43.52,33.28-76.8,76.8-76.8s76.8,33.28,76.8,76.8C435.2,304.64,378.88,309.76,378.88,353.28Z" transform="translate(0 -51.2)"/>
</svg>
